<?xml version="1.0" ?><svg id="Layer_1" style="enable-background:new 0 0 64 64;" version="1.1" viewBox="0 0 64 64" xml:space="preserve" xmlns="http://www.w3.org/2000/svg" xmlns:xlink="http://www.w3.org/1999/xlink"><style type="text/css">
	.st0{fill:#95A0B8;}
	.st1{fill:#4A4A70;}
	.st2{fill:none;stroke:#707594;stroke-width:2;stroke-miterlimit:10;stroke-dasharray:2,2;}
	.st3{fill:#707594;}
	.st4{fill:none;stroke:#FFFFFF;stroke-width:4;stroke-miterlimit:10;}
	.st5{fill:#FFFFFF;}
	.st6{fill:none;stroke:#FFFFFF;stroke-width:2;stroke-linecap:square;stroke-miterlimit:10;}
	.st7{fill:none;stroke:#4A4A70;stroke-width:2;stroke-linecap:square;stroke-miterlimit:10;}
	.st8{fill:none;stroke:#95A0B8;stroke-width:2;stroke-miterlimit:10;}
	.st9{fill:none;stroke:#4A4A70;stroke-width:4;stroke-linejoin:round;stroke-miterlimit:10;}
	.st10{fill:none;stroke:#4A4A70;stroke-width:4;stroke-miterlimit:10;}
	.st11{fill:none;stroke:#95A0B8;stroke-width:4;stroke-miterlimit:10;}
	.st12{fill:none;stroke:#FFFFFF;stroke-width:2;stroke-miterlimit:10;}
	.st13{fill:none;stroke:#95A0B8;stroke-width:3;stroke-miterlimit:10;}
	.st14{fill:none;stroke:#4A4A70;stroke-width:5.6667;stroke-miterlimit:10;}
	.st15{fill:none;stroke:#4A4A70;stroke-width:8.7997;stroke-linecap:round;stroke-miterlimit:10;}
	.st16{fill:none;stroke:#4A4A70;stroke-width:8.6127;stroke-linecap:round;stroke-miterlimit:10;}
	.st17{fill:none;stroke:#95A0B8;stroke-width:12;stroke-linecap:round;stroke-miterlimit:10;}
	.st18{fill:none;stroke:#95A0B8;stroke-width:4;stroke-linecap:round;stroke-linejoin:round;stroke-miterlimit:10;}
</style><path class="st0" d="M52,23.111c0-3.945-2.956-7.206-6.767-7.704c0.06-0.387,0.1-0.781,0.1-1.185c0-4.288-3.49-7.778-7.778-7.778  c-2.175,0-4.143,0.9-5.556,2.345c-1.413-1.445-3.38-2.345-5.556-2.345c-4.288,0-7.778,3.49-7.778,7.778  c0,0.404,0.04,0.797,0.1,1.185C14.956,15.905,12,19.166,12,23.111c0,0.932,0.165,1.825,0.468,2.653  c1.309,3.586,1.755,7.43,1.755,11.247v18.545c0,1.105,0.895,2,2,2h31.556c1.105,0,2-0.895,2-2V37.011  c0-3.817,0.446-7.661,1.755-11.247C51.835,24.936,52,24.043,52,23.111z"/><path class="st1" d="M40,34c-0.023,0-0.045,0.006-0.068,0.007C39.442,30.058,36.081,27,32,27s-7.442,3.058-7.932,7.007  C24.045,34.006,24.023,34,24,34c-2.517,0-4.491,2.324-3.892,4.943c0.314,1.375,1.389,2.508,2.745,2.893  c1.112,0.316,2.165,0.153,3.029-0.318c0.533-0.291,1.181-0.205,1.686,0.133C28.837,42.501,30.359,43,32,43s3.163-0.499,4.432-1.348  c0.505-0.338,1.153-0.424,1.686-0.133c0.864,0.471,1.917,0.634,3.029,0.318c1.356-0.386,2.431-1.519,2.745-2.893  C44.491,36.324,42.517,34,40,34z"/><ellipse class="st1" cx="20" cy="25" rx="4" ry="5" transform="matrix(0.9848 -0.1736 0.1736 0.9848 -4.0374 3.8528)"/><ellipse class="st1" cx="44" cy="25" rx="5" ry="4" transform="matrix(0.1736 -0.9848 0.9848 0.1736 11.7393 63.9903)"/><ellipse class="st1" cx="27" cy="16" rx="4" ry="5"/><ellipse class="st1" cx="37" cy="16" rx="4" ry="5"/></svg>